<svg width="24" height="25" viewBox="0 0 24 25" fill="none" xmlns="http://www.w3.org/2000/svg">
<path d="M6.8076 0.5C7.03038 0.5 7.24404 0.5885 7.40157 0.74603C7.5591 0.903561 7.6476 1.11722 7.6476 1.34V2.9108H16.668V1.3508C16.668 1.12802 16.7565 0.914361 16.914 0.75683C17.0716 0.5993 17.2852 0.5108 17.508 0.5108C17.7308 0.5108 17.9444 0.5993 18.102 0.75683C18.2595 0.914361 18.348 1.12802 18.348 1.3508V2.9108H21.6C22.2363 2.9108 22.8466 3.16349 23.2966 3.61332C23.7467 4.06315 23.9997 4.67329 24 5.3096V22.1012C23.9997 22.7375 23.7467 23.3477 23.2966 23.7975C22.8466 24.2473 22.2363 24.5 21.6 24.5H2.4C1.76369 24.5 1.15342 24.2473 0.703368 23.7975C0.253315 23.3477 0.000318156 22.7375 0 22.1012L0 5.3096C0.000318156 4.67329 0.253315 4.06315 0.703368 3.61332C1.15342 3.16349 1.76369 2.9108 2.4 2.9108H5.9676V1.3388C5.96792 1.11623 6.05656 0.902877 6.21405 0.745606C6.37155 0.588335 6.58503 0.5 6.8076 0.5ZM1.68 9.7904V22.1012C1.68 22.1958 1.69862 22.2894 1.73481 22.3767C1.77099 22.4641 1.82403 22.5435 1.89088 22.6103C1.95774 22.6772 2.03711 22.7302 2.12447 22.7664C2.21182 22.8026 2.30545 22.8212 2.4 22.8212H21.6C21.6946 22.8212 21.7882 22.8026 21.8755 22.7664C21.9629 22.7302 22.0423 22.6772 22.1091 22.6103C22.176 22.5435 22.229 22.4641 22.2652 22.3767C22.3014 22.2894 22.32 22.1958 22.32 22.1012V9.8072L1.68 9.7904ZM8.0004 18.0428V20.042H6V18.0428H8.0004ZM12.9996 18.0428V20.042H11.0004V18.0428H12.9996ZM18 18.0428V20.042H15.9996V18.0428H18ZM8.0004 13.2704V15.2696H6V13.2704H8.0004ZM12.9996 13.2704V15.2696H11.0004V13.2704H12.9996ZM18 13.2704V15.2696H15.9996V13.2704H18ZM5.9676 4.5896H2.4C2.30545 4.5896 2.21182 4.60822 2.12447 4.64441C2.03711 4.68059 1.95774 4.73362 1.89088 4.80048C1.82403 4.86734 1.77099 4.94671 1.73481 5.03407C1.69862 5.12142 1.68 5.21505 1.68 5.3096V8.1116L22.32 8.1284V5.3096C22.32 5.21505 22.3014 5.12142 22.2652 5.03407C22.229 4.94671 22.176 4.86734 22.1091 4.80048C22.0423 4.73362 21.9629 4.68059 21.8755 4.64441C21.7882 4.60822 21.6946 4.5896 21.6 4.5896H18.348V5.7044C18.348 5.92718 18.2595 6.14084 18.102 6.29837C17.9444 6.4559 17.7308 6.5444 17.508 6.5444C17.2852 6.5444 17.0716 6.4559 16.914 6.29837C16.7565 6.14084 16.668 5.92718 16.668 5.7044V4.5896H7.6476V5.6936C7.6476 5.91638 7.5591 6.13004 7.40157 6.28757C7.24404 6.4451 7.03038 6.5336 6.8076 6.5336C6.58482 6.5336 6.37116 6.4451 6.21363 6.28757C6.0561 6.13004 5.9676 5.91638 5.9676 5.6936V4.5896Z" fill="#2C2C2C"/>
</svg>
