<svg width="50" height="24" viewBox="0 0 50 24" fill="none" xmlns="http://www.w3.org/2000/svg">
<path d="M49.2471 10.958C49.1769 10.079 49.0981 9.08417 48.9444 8.22576C48.8376 7.62538 48.6029 6.82593 47.8092 6.82593C47.7297 6.82593 47.6501 6.83406 47.5715 6.84251C47.5224 6.84735 47.4733 6.85424 47.3929 6.8558C47.3912 6.8558 47.3655 6.82984 47.3328 6.73116C47.0997 6.03789 46.122 5.17557 44.8684 4.12088C44.5595 3.86206 44.1899 3.55038 44.0324 3.38961C44.0902 2.97425 44.0816 2.46411 43.8032 2.11255C43.6738 1.9485 43.4305 1.75254 43.011 1.75254C42.9494 1.75254 42.8839 1.75645 42.7382 1.7699C42.4355 1.7699 41.829 1.64073 40.9892 1.46041C38.824 0.998909 34.7937 0.138931 28.7504 0.00365557C19.9511 -0.177285 13.0366 6.41776 12.7516 6.6955L12.5477 6.89224C12.1863 7.07365 11.0451 7.50731 7.55688 8.2195C2.60931 9.23133 1.6655 10.8684 1.48722 11.5015C1.09227 11.8077 0.452627 12.538 0.35129 13.3972C0.26983 14.0823 0.0853758 14.3626 0.0853758 14.3618L0 14.4761V19.3123L0.00963677 19.4005C0.27781 20.6847 1.55935 21.3642 3.71558 21.3642C4.40325 21.3642 4.91912 21.2914 4.89909 21.2914C4.92906 21.2896 5.19497 21.2849 5.65573 21.2751C5.6086 21.1398 5.56569 21.003 5.52864 20.8629C5.49281 20.7277 5.45998 20.5917 5.43469 20.4523C5.37385 20.1242 5.33967 19.7866 5.33967 19.44C5.33967 16.468 7.66771 14.05 10.5292 14.05C13.3907 14.05 15.7189 16.468 15.7189 19.44C15.7189 19.7089 15.6936 19.9696 15.6573 20.2279C15.6375 20.368 15.6144 20.5072 15.584 20.6433C15.5528 20.7842 15.5202 20.9235 15.4788 21.0604C21.9592 20.9162 30.2053 20.7259 36.5917 20.5591C36.5636 20.4231 36.5456 20.2853 36.5277 20.146C36.5098 20.0084 36.4996 19.8707 36.4926 19.7315C36.488 19.6343 36.4786 19.5389 36.4786 19.44C36.4786 16.468 38.8068 14.05 41.6682 14.05C44.4892 14.05 46.7877 16.4016 46.8517 19.317C46.8517 19.3575 46.8579 19.3986 46.8579 19.44C46.8579 19.5445 46.8486 19.6465 46.8422 19.7502C46.8344 19.8975 46.8204 20.044 46.8017 20.1882C48.0211 19.9793 48.9381 19.312 49.469 18.2326C50.3773 16.387 49.9142 13.8881 49.5883 13.3575C49.4122 13.0703 49.3249 11.948 49.2471 10.958Z" fill="#242E42"/>
<path d="M6.50149 21.2556C7.17787 22.8703 8.72517 23.9999 10.5286 23.9999C12.3968 23.9999 13.9881 22.786 14.6227 21.079C14.673 20.943 14.7179 20.8036 14.7561 20.6612C14.7927 20.5251 14.8231 20.3858 14.8481 20.2449C14.8926 19.9834 14.9206 19.7144 14.9206 19.4393C14.9206 16.9201 12.955 14.8784 10.5294 14.8784C8.10375 14.8784 6.13815 16.9201 6.13815 19.4393C6.13815 19.781 6.17715 20.1137 6.24611 20.4344C6.27532 20.5738 6.31041 20.7106 6.35287 20.8442C6.39623 20.9852 6.44577 21.1211 6.50149 21.2556Z" fill="#242E42"/>
<path d="M37.4082 20.5362C37.8822 22.5234 39.607 23.9996 41.6669 23.9996C43.8204 23.9996 45.6083 22.3874 45.9825 20.2632C46.0066 20.1255 46.0252 19.987 46.0385 19.8453C46.0502 19.7109 46.0581 19.5765 46.0581 19.4388C46.0581 19.4355 46.0581 19.4323 46.0581 19.4282C46.0534 16.9147 44.0885 14.8779 41.6669 14.8779C39.242 14.8779 37.2757 16.9196 37.2757 19.4388C37.2757 19.5303 37.2842 19.6193 37.2889 19.71C37.2967 19.8501 37.31 19.9876 37.3302 20.1238C37.3505 20.2633 37.377 20.4009 37.4082 20.5362Z" fill="#242E42"/>
</svg>
