<svg width="10" height="11" viewBox="0 0 10 11" fill="none" xmlns="http://www.w3.org/2000/svg">
<path d="M4.35046 2.48462H1.57963C1.36967 2.48462 1.1683 2.56803 1.01984 2.71649C0.871371 2.86496 0.787964 3.06632 0.787964 3.27629V8.81795C0.787964 9.02792 0.871371 9.22928 1.01984 9.37775C1.1683 9.52621 1.36967 9.60962 1.57963 9.60962H7.1213C7.33126 9.60962 7.53262 9.52621 7.68109 9.37775C7.82956 9.22928 7.91296 9.02792 7.91296 8.81795V6.04712" stroke="white" stroke-linecap="round" stroke-linejoin="round"/>
<path d="M7.31921 1.89096C7.47669 1.73349 7.69026 1.64502 7.91296 1.64502C8.13566 1.64502 8.34924 1.73349 8.50671 1.89096C8.66419 2.04843 8.75265 2.26201 8.75265 2.48471C8.75265 2.70741 8.66419 2.92099 8.50671 3.07846L4.7463 6.83887L3.16296 7.23471L3.5588 5.65137L7.31921 1.89096Z" stroke="white" stroke-linecap="round" stroke-linejoin="round"/>
</svg>
