<svg width="20" height="25" viewBox="0 0 20 25" fill="none" xmlns="http://www.w3.org/2000/svg">
<path fill-rule="evenodd" clip-rule="evenodd" d="M10 25C11.0146 25 15.8464 19.1677 17.0378 17.3099C18.8693 14.454 20 12.7645 20 9.61177C20 4.30334 15.5228 0 10 0C4.47715 0 0 4.30334 0 9.61177C0 12.7809 1.04772 14.4592 2.87305 17.3099C4.14526 19.2968 8.98535 25 10 25ZM10 14.4173C12.7614 14.4173 15 12.2656 15 9.61139C15 6.95717 12.7614 4.8055 10 4.8055C7.23858 4.8055 5 6.95717 5 9.61139C5 12.2656 7.23858 14.4173 10 14.4173Z" fill="#D8133C"/>
</svg>
