<svg width="14" height="18" viewBox="0 0 14 18" fill="none" xmlns="http://www.w3.org/2000/svg">
<path d="M11.8151 10.5892L11.4082 10.2985L11.8151 10.5892ZM7.01185 17.3137L7.41872 17.6043L7.41872 17.6043L7.01185 17.3137ZM6.98815 17.3137L6.58128 17.6043L6.58128 17.6043L6.98815 17.3137ZM2.18491 10.5892L1.77805 10.8798H1.77805L2.18491 10.5892ZM8.17275 4.13081L8.38969 3.68032V3.68032L8.17275 4.13081ZM9.63514 5.96459L9.14767 6.07585V6.07585L9.63514 5.96459ZM4.36486 5.96459L3.87739 5.85333L4.36486 5.96459ZM4.88678 8.25128L4.49586 8.56302L4.88678 8.25128ZM9.11322 8.25128L9.50413 8.56302L9.11322 8.25128ZM13.5 6.53027C13.5 2.94042 10.5898 0.0302734 7 0.0302734V1.03027C10.0376 1.03027 12.5 3.49271 12.5 6.53027H13.5ZM13.5 6.89167V6.53027H12.5V6.89167H13.5ZM12.2219 10.8798C13.0532 9.71608 13.5 8.32174 13.5 6.89167H12.5C12.5 8.11332 12.1183 9.30444 11.4082 10.2985L12.2219 10.8798ZM7.41872 17.6043L12.2219 10.8798L11.4082 10.2985L6.60499 17.0231L7.41872 17.6043ZM6.58128 17.6043C6.7865 17.8916 7.2135 17.8916 7.41872 17.6043L6.60499 17.0231C6.79859 16.752 7.20141 16.752 7.39501 17.0231L6.58128 17.6043ZM1.77805 10.8798L6.58128 17.6043L7.39501 17.0231L2.59178 10.2985L1.77805 10.8798ZM0.5 6.89167C0.5 8.32174 0.946835 9.71607 1.77805 10.8798L2.59178 10.2985C1.88171 9.30444 1.5 8.11332 1.5 6.89167H0.5ZM0.5 6.53027V6.89167H1.5V6.53027H0.5ZM7 0.0302734C3.41015 0.0302734 0.5 2.94042 0.5 6.53027H1.5C1.5 3.49271 3.96243 1.03027 7 1.03027V0.0302734ZM7.9558 4.58129C8.55981 4.87217 8.9985 5.42226 9.14767 6.07585L10.1226 5.85333C9.9057 4.90304 9.26788 4.10324 8.38969 3.68032L7.9558 4.58129ZM6.04419 4.58129C6.6482 4.29042 7.3518 4.29042 7.9558 4.58129L8.38969 3.68032C7.51149 3.25741 6.4885 3.25741 5.61031 3.68032L6.04419 4.58129ZM4.85232 6.07585C5.0015 5.42226 5.44018 4.87217 6.04419 4.58129L5.61031 3.68032C4.73211 4.10324 4.09429 4.90304 3.87739 5.85333L4.85232 6.07585ZM5.2777 7.93953C4.85971 7.41539 4.70315 6.72944 4.85232 6.07585L3.87739 5.85333C3.6605 6.80361 3.88813 7.80095 4.49586 8.56302L5.2777 7.93953ZM7 8.76895C6.3296 8.76895 5.69568 8.46367 5.2777 7.93953L4.49586 8.56302C5.1036 9.32509 6.02527 9.76895 7 9.76895L7 8.76895ZM8.7223 7.93953C8.30431 8.46367 7.6704 8.76895 7 8.76895L7 9.76895C7.97472 9.76895 8.8964 9.32509 9.50413 8.56302L8.7223 7.93953ZM9.14767 6.07585C9.29685 6.72944 9.14029 7.41539 8.7223 7.93953L9.50413 8.56302C10.1119 7.80095 10.3395 6.80361 10.1226 5.85333L9.14767 6.07585Z" fill="#414141"/>
</svg>
