<svg width="8" height="10" viewBox="0 0 8 10" fill="none" xmlns="http://www.w3.org/2000/svg">
<path fill-rule="evenodd" clip-rule="evenodd" d="M4 10C4.40586 10 6.33857 7.66708 6.81514 6.92395C7.54771 5.78161 8 5.1058 8 3.84471C8 1.72134 6.20914 0 4 0C1.79086 0 0 1.72134 0 3.84471C0 5.11236 0.419089 5.78367 1.14922 6.92395C1.65811 7.71871 3.59414 10 4 10ZM4 5.76688C5.10457 5.76688 6 4.90621 6 3.84452C6 2.78284 5.10457 1.92217 4 1.92217C2.89543 1.92217 2 2.78284 2 3.84452C2 4.90621 2.89543 5.76688 4 5.76688Z" fill="#2C2C2C"/>
</svg>
