<svg width="62" height="30" viewBox="0 0 62 30" fill="none" xmlns="http://www.w3.org/2000/svg">
<path d="M61.0663 13.6974C60.9793 12.5986 60.8817 11.3552 60.6911 10.2821C60.5587 9.53168 60.2676 8.53236 59.2834 8.53236C59.1848 8.53236 59.0861 8.54253 58.9886 8.55308C58.9277 8.55914 58.8669 8.56775 58.7672 8.5697C58.7651 8.5697 58.7332 8.53725 58.6927 8.4139C58.4036 7.54732 57.1913 6.46942 55.6368 5.15108C55.2538 4.82755 54.7954 4.43795 54.6001 4.23699C54.6718 3.71779 54.6612 3.08012 54.3159 2.64067C54.1556 2.43561 53.8538 2.19067 53.3337 2.19067C53.2573 2.19067 53.1761 2.19555 52.9953 2.21237C52.62 2.21237 51.868 2.0509 50.8267 1.8255C48.1417 1.24863 43.1442 0.173663 35.6505 0.00456944C24.7394 -0.221606 16.1654 8.02215 15.8119 8.36933L15.5591 8.61525C15.111 8.84201 13.6959 9.38409 9.37054 10.2743C3.23554 11.5391 2.06523 13.5854 1.84416 14.3767C1.35441 14.7595 0.561257 15.6724 0.4356 16.7464C0.334589 17.6028 0.105866 17.9531 0.105866 17.9522L0 18.095V24.1402L0.0119496 24.2504C0.344484 25.8558 1.93359 26.7051 4.60732 26.7051C5.46003 26.7051 6.09971 26.614 6.07487 26.614C6.11203 26.6119 6.44176 26.606 7.0131 26.5937C6.95466 26.4246 6.90145 26.2536 6.85552 26.0784C6.81108 25.9095 6.77038 25.7395 6.73901 25.5653C6.66358 25.1551 6.6212 24.7331 6.6212 24.2999C6.6212 20.5849 9.50796 17.5624 13.0562 17.5624C16.6045 17.5624 19.4915 20.5849 19.4915 24.2999C19.4915 24.6359 19.4601 24.9618 19.4151 25.2848C19.3905 25.4599 19.3619 25.6339 19.3242 25.804C19.2855 25.9801 19.245 26.1543 19.1937 26.3253C27.2294 26.1451 37.4545 25.9072 45.3737 25.6988C45.3388 25.5287 45.3166 25.3565 45.2944 25.1823C45.2722 25.0103 45.2595 24.8383 45.2509 24.6643C45.2451 24.5427 45.2335 24.4235 45.2335 24.2999C45.2335 20.5849 48.1205 17.5624 51.6686 17.5624C55.1666 17.5624 58.0168 20.5018 58.0961 24.1461C58.0961 24.1967 58.1038 24.2481 58.1038 24.2999C58.1038 24.4305 58.0922 24.5579 58.0844 24.6875C58.0747 24.8717 58.0573 25.0549 58.0341 25.2351C59.5461 24.9739 60.6832 24.1398 61.3416 22.7906C62.4678 20.4837 61.8937 17.36 61.4894 16.6968C61.2712 16.3378 61.1629 14.9349 61.0663 13.6974Z" fill="#242E42"/>
<path d="M8.06187 26.5701C8.90058 28.5885 10.8192 30.0004 13.0555 30.0004C15.372 30.0004 17.3452 28.4831 18.1322 26.3494C18.1946 26.1793 18.2502 26.0051 18.2976 25.827C18.343 25.657 18.3807 25.4828 18.4117 25.3067C18.4668 24.9798 18.5015 24.6436 18.5015 24.2997C18.5015 21.1507 16.0642 18.5986 13.0564 18.5986C10.0487 18.5986 7.61133 21.1507 7.61133 24.2997C7.61133 24.7269 7.65969 25.1427 7.7452 25.5436C7.78142 25.7178 7.82493 25.8888 7.87758 26.0558C7.93135 26.2321 7.99278 26.402 8.06187 26.5701Z" fill="#242E42"/>
<path d="M46.386 25.6705C46.9738 28.1545 49.1125 29.9997 51.6668 29.9997C54.3371 29.9997 56.5542 27.9844 57.0181 25.3291C57.048 25.1571 57.0712 24.9839 57.0876 24.8068C57.1022 24.6389 57.1119 24.4708 57.1119 24.2988C57.1119 24.2946 57.1119 24.2905 57.1119 24.2855C57.1061 21.1436 54.6697 18.5977 51.6668 18.5977C48.66 18.5977 46.2217 21.1497 46.2217 24.2988C46.2217 24.4131 46.2323 24.5243 46.2381 24.6377C46.2478 24.8129 46.2643 24.9847 46.2893 25.155C46.3145 25.3293 46.3473 25.5014 46.386 25.6705Z" fill="#242E42"/>
</svg>
