<svg width="21" height="19" viewBox="0 0 21 19" fill="none" xmlns="http://www.w3.org/2000/svg">
<path d="M16.5 0C17.5609 0 18.5783 0.421427 19.3284 1.17157C20.0786 1.92172 20.5 2.93913 20.5 4V12C20.5 13.0609 20.0786 14.0783 19.3284 14.8284C18.5783 15.5786 17.5609 16 16.5 16H11.776L7.014 18.857C6.87059 18.9431 6.70788 18.9918 6.54077 18.9987C6.37366 19.0056 6.20749 18.9705 6.05746 18.8966C5.90743 18.8227 5.77833 18.7123 5.68199 18.5756C5.58565 18.4389 5.52514 18.2802 5.506 18.114L5.5 18V16H4.5C3.47376 16 2.48677 15.6056 1.74319 14.8983C0.999605 14.191 0.556312 13.225 0.505 12.2L0.5 12V4C0.5 2.93913 0.921427 1.92172 1.67157 1.17157C2.42172 0.421427 3.43913 0 4.5 0H16.5ZM12.5 9H6.5C6.23478 9 5.98043 9.10536 5.79289 9.29289C5.60536 9.48043 5.5 9.73478 5.5 10C5.5 10.2652 5.60536 10.5196 5.79289 10.7071C5.98043 10.8946 6.23478 11 6.5 11H12.5C12.7652 11 13.0196 10.8946 13.2071 10.7071C13.3946 10.5196 13.5 10.2652 13.5 10C13.5 9.73478 13.3946 9.48043 13.2071 9.29289C13.0196 9.10536 12.7652 9 12.5 9ZM14.5 5H6.5C6.23478 5 5.98043 5.10536 5.79289 5.29289C5.60536 5.48043 5.5 5.73478 5.5 6C5.5 6.26522 5.60536 6.51957 5.79289 6.70711C5.98043 6.89464 6.23478 7 6.5 7H14.5C14.7652 7 15.0196 6.89464 15.2071 6.70711C15.3946 6.51957 15.5 6.26522 15.5 6C15.5 5.73478 15.3946 5.48043 15.2071 5.29289C15.0196 5.10536 14.7652 5 14.5 5Z" fill="white"/>
</svg>
