<svg width="22" height="22" viewBox="0 0 22 22" fill="none" xmlns="http://www.w3.org/2000/svg">
<path d="M21.7215 12.2238L21.3804 11.7691C21.0125 11.2703 21.0039 10.598 21.367 10.0993L21.6982 9.64091C22.2067 8.93682 21.9708 7.95648 21.1934 7.55187L20.6849 7.28417C20.1299 6.99447 19.8304 6.38817 19.9343 5.78309L20.0297 5.22569C20.1751 4.37492 19.5297 3.59015 18.6484 3.5547L18.0751 3.5327C17.448 3.50581 16.9065 3.09142 16.7342 2.49857L16.5753 1.95461C16.3296 1.12584 15.403 0.698011 14.5938 1.03661L14.0669 1.25908C13.49 1.50356 12.8213 1.35687 12.3984 0.898481L12.017 0.479206C11.4266 -0.166208 10.3986 -0.157651 9.82163 0.492652L9.44391 0.916817C9.03075 1.3801 8.36211 1.53534 7.78515 1.29942L7.25342 1.0855C6.43931 0.755463 5.51642 1.20163 5.28539 2.03407L5.13504 2.57802C4.97124 3.17088 4.43584 3.59382 3.80754 3.62927L3.23547 3.66105C2.3578 3.70994 1.72217 4.50327 1.88108 5.34915L1.9862 5.90166C2.09866 6.50796 1.80284 7.11426 1.25766 7.41252L0.752823 7.68389C-0.0148285 8.10316 -0.237301 9.08717 0.280986 9.78271L0.622029 10.2374C0.989964 10.7362 0.998521 11.4085 0.635475 11.9084L0.304211 12.3668C-0.204297 13.0709 0.0316217 14.0512 0.809053 14.4558L1.31756 14.7235C1.87252 15.0133 2.172 15.6195 2.0681 16.2246L1.97275 16.782C1.82729 17.6328 2.47271 18.4176 3.35404 18.453L3.92733 18.475C4.55441 18.5019 5.09592 18.9163 5.26828 19.5091L5.42719 20.0531C5.67288 20.8819 6.59945 21.3097 7.40866 20.9711L7.9355 20.7486C8.51246 20.5042 9.1811 20.6508 9.60404 21.1092L9.98542 21.5285C10.5722 22.1703 11.599 22.1617 12.1759 21.5102L12.5536 21.0872C12.9668 20.624 13.6354 20.4675 14.2124 20.7046L14.7441 20.9185C15.5582 21.2486 16.4811 20.8024 16.7122 19.97L16.8625 19.426C17.0263 18.8332 17.5629 18.4102 18.19 18.3748L18.7633 18.343C19.641 18.2941 20.2766 17.5008 20.1177 16.6549L20.0126 16.1024C19.8989 15.4961 20.1947 14.891 20.7399 14.5915L21.2447 14.3202C22.0173 13.9033 22.2397 12.9193 21.7215 12.2238Z" fill="#181818"/>
</svg>
