<svg width="62" height="38" viewBox="0 0 62 38" fill="none" xmlns="http://www.w3.org/2000/svg">
<path d="M62 14.2101V28.4199H58.6858C55.4345 28.4199 55.3589 28.4071 55.1195 28.137C54.6911 27.6483 53.4057 26.8768 52.574 26.6196C51.5658 26.2981 49.852 26.2724 48.8817 26.5681C47.9492 26.8511 47.3821 27.1597 46.5756 27.8412L45.8699 28.4199H33.4573H21.0447V14.2101V0.000228882H41.5223H62V14.2101Z" fill="#242E42" fill-opacity="0.6"/>
<path d="M19.6584 19.5465V32.1489H17.8438H16.0418L15.9536 31.5574C15.8276 30.5801 15.0841 29.1784 14.2523 28.3168C13.6979 27.7381 13.2064 27.3909 12.3999 26.9922C11.3792 26.4907 11.2028 26.4393 10.0182 26.3878C9.04787 26.3493 8.55641 26.3878 7.98934 26.555C5.69584 27.2237 3.95681 29.0112 3.42754 31.223L3.21332 32.1489H1.60031H-0.000101089V27.1337V22.1184H7.87592C15.6259 22.1184 15.7519 22.1184 16.004 21.8613C16.256 21.6041 16.2686 21.4755 16.2308 16.0616C16.193 10.7506 16.1804 10.5191 15.9536 10.3391C15.7519 10.1976 14.8824 10.159 11.1397 10.159H6.56535L7.47267 8.55158L8.37998 6.94413H14.0129H19.6584V19.5465Z" fill="#242E42" fill-opacity="0.6"/>
<path d="M14.8699 16.1385V20.7036H7.74995C3.83084 20.7036 0.630027 20.665 0.630027 20.6265C0.630027 20.575 1.77678 18.5175 3.17556 16.0613L5.73369 11.5862L10.2955 11.5733H14.8699V16.1385Z" fill="#242E42" fill-opacity="0.6"/>
<path d="M51.591 27.7766C54.25 28.2524 56.178 31.0301 55.7118 33.7178C55.4219 35.4024 54.3508 36.8684 52.8638 37.6142C52.1707 37.9614 52.0069 38 50.7215 38C49.411 38 49.2849 37.9743 48.5162 37.5885C47.4703 37.0613 46.6008 36.1739 46.0841 35.1066C45.7061 34.335 45.6809 34.1807 45.6809 32.9205C45.6809 31.7245 45.7187 31.493 46.0211 30.8372C46.4748 29.847 46.9032 29.2812 47.6467 28.7282C48.7305 27.9181 50.2805 27.5452 51.591 27.7766ZM49.2219 30.6958C48.9321 30.9015 48.5666 31.3259 48.3902 31.6345C47.3065 33.6277 49.0959 36.0325 51.276 35.4924C53.2293 35.0166 53.9475 32.5733 52.574 31.0687C51.7171 30.1299 50.2427 29.9628 49.2219 30.6958Z" fill="#242E42" fill-opacity="0.6"/>
<path d="M51.4525 31.8923C52.3472 32.6124 51.7801 34.207 50.6586 34.207C50.0411 34.207 49.3984 33.5512 49.3984 32.9211C49.3984 31.8923 50.6586 31.2622 51.4525 31.8923Z" fill="#242E42" fill-opacity="0.6"/>
<path d="M10.7113 27.8281C11.7573 28.0595 12.6142 28.5739 13.3829 29.4355C15.7268 32.0074 14.8951 36.1482 11.7447 37.6528C11.102 37.9614 10.8752 38 9.6402 38C8.32963 38 8.20361 37.9743 7.42231 37.5885C5.38084 36.5597 4.18369 34.1035 4.64995 31.9046C5.09101 29.7956 6.71662 28.1881 8.82109 27.7766C9.62759 27.6223 9.82922 27.6223 10.7113 27.8281ZM8.63207 30.4643C6.81743 31.313 6.48979 33.602 7.98938 34.9523C9.01011 35.8653 10.3585 35.8139 11.417 34.8237C12.0723 34.2064 12.2739 33.6535 12.1983 32.6633C12.1227 31.6602 11.6943 31.0044 10.8247 30.5543C10.0434 30.1557 9.33776 30.1299 8.63207 30.4643Z" fill="#242E42" fill-opacity="0.6"/>
<path d="M10.4846 32.0082C11.4172 32.8569 10.6232 34.3872 9.36308 34.1429C8.44317 33.9757 8.11552 32.7154 8.80861 32.0082C9.31268 31.5066 9.93016 31.4938 10.4846 32.0082Z" fill="#242E42" fill-opacity="0.6"/>
<path d="M62 30.9916V32.1489H59.5679H57.1484L56.8837 31.2102C56.7451 30.7087 56.5813 30.1814 56.5183 30.0528C56.4301 29.8471 56.6065 29.8342 59.215 29.8342H62V30.9916Z" fill="#242E42" fill-opacity="0.6"/>
<path d="M44.6602 30.5673C44.4964 30.9788 44.3578 31.416 44.3578 31.5317C44.3578 32.1876 45.1265 32.149 32.6256 32.149H21.0447V30.9916V29.8343H33.0037H44.9626L44.6602 30.5673Z" fill="#242E42" fill-opacity="0.6"/>
</svg>
