<svg width="24" height="25" viewBox="0 0 24 25" fill="none" xmlns="http://www.w3.org/2000/svg">
<path d="M18 21.5H6.00005C5.33731 21.5 4.80005 20.9627 4.80005 20.3C4.80005 18.3151 6.03149 16.5384 7.89014 15.8418L8.25916 15.7035C10.6712 14.7995 13.3289 14.7995 15.7409 15.7035L16.11 15.8418C17.9686 16.5384 19.2 18.3151 19.2 20.3C19.2 20.9627 18.6628 21.5 18 21.5Z" fill="#C2CCDE" fill-opacity="0.25"/>
<path d="M10.1705 12.1602C11.3189 12.7501 12.6812 12.7501 13.8296 12.1602C14.8984 11.6112 15.6641 10.6113 15.9155 9.43633L15.9826 9.12275C16.2397 7.92126 15.9651 6.66727 15.2294 5.6832L15.1216 5.5391C14.3858 4.55489 13.2289 3.97534 12 3.97534C10.7712 3.97534 9.61428 4.55489 8.87846 5.5391L8.77072 5.6832C8.035 6.66728 7.76038 7.92126 8.01748 9.12275L8.08457 9.43633C8.33598 10.6113 9.10172 11.6112 10.1705 12.1602Z" fill="#C2CCDE" fill-opacity="0.25"/>
<path d="M18 21.5H6.00005C5.33731 21.5 4.80005 20.9627 4.80005 20.3C4.80005 18.3151 6.03149 16.5384 7.89014 15.8418L8.25916 15.7035C10.6712 14.7995 13.3289 14.7995 15.7409 15.7035L16.11 15.8418C17.9686 16.5384 19.2 18.3151 19.2 20.3C19.2 20.9627 18.6628 21.5 18 21.5Z" stroke="#2C2C2C" stroke-linecap="round" stroke-linejoin="round"/>
<path d="M10.1705 12.1602C11.3189 12.7501 12.6812 12.7501 13.8296 12.1602C14.8984 11.6112 15.6641 10.6113 15.9155 9.43633L15.9826 9.12275C16.2397 7.92126 15.9651 6.66727 15.2294 5.6832L15.1216 5.5391C14.3858 4.55489 13.2289 3.97534 12 3.97534C10.7712 3.97534 9.61428 4.55489 8.87846 5.5391L8.77072 5.6832C8.035 6.66728 7.76038 7.92126 8.01748 9.12275L8.08457 9.43633C8.33598 10.6113 9.10172 11.6112 10.1705 12.1602Z" stroke="#2C2C2C" stroke-linecap="round" stroke-linejoin="round"/>
</svg>
